<?xml version="1.0" standalone="no"?>
<!DOCTYPE svg PUBLIC "-//W3C//DTD SVG 20010904//EN"
 "http://www.w3.org/TR/2001/REC-SVG-20010904/DTD/svg10.dtd">
<svg version="1.0" xmlns="http://www.w3.org/2000/svg"
 width="1582.000000pt" height="1582.000000pt" viewBox="0 0 1582.000000 1582.000000"
 preserveAspectRatio="xMidYMid meet">
<metadata>
Created by potrace 1.14, written by Peter Selinger 2001-2017
</metadata>
<g transform="translate(0.000000,1582.000000) scale(0.100000,-0.100000)"
fill="#000000" stroke="none">
<path d="M7400 15699 c-1929 -127 -3701 -915 -5069 -2254 -1146 -1122 -1920
-2567 -2205 -4117 -28 -152 -76 -470 -76 -505 l0 -23 2153 0 2152 0 1200 1925
1200 1925 3718 0 c2044 0 3717 3 3717 7 0 3 -43 59 -95 123 -528 653 -1192
1244 -1903 1694 -1148 727 -2417 1137 -3797 1226 -184 12 -811 11 -995 -1z"/>
<path d="M7734 10513 c-76 -120 -162 -256 -193 -303 -30 -47 -382 -599 -782
-1228 l-728 -1142 921 -1445 921 -1445 3681 2 3680 3 38 95 c245 601 428 1328
502 1990 37 327 41 411 41 875 0 464 -4 548 -41 875 -64 573 -206 1184 -401
1725 -36 99 -69 188 -74 198 -9 16 -197 17 -3718 17 l-3709 0 -138 -217z"/>
<path d="M70 6856 c0 -47 69 -434 110 -617 325 -1462 1070 -2796 2156 -3859
1199 -1174 2753 -1942 4409 -2179 469 -67 773 -85 1295 -78 386 5 576 18 890
58 1718 219 3311 987 4548 2194 202 196 591 622 592 648 0 4 -1646 7 -3658 7
l-3658 0 -1199 1925 -1200 1924 -2142 1 -2143 0 0 -24z"/>
</g>
</svg>
